{"asset":{"version":"2.0","generator":"Blockbench 4.9.4 glTF exporter"},"scenes":[{"nodes":[6],"name":"blockbench_export"}],"scene":0,"nodes":[{"name":"tank","mesh":0},{"name":"valve assembly","mesh":1},{"rotation":[0.19509032201612825,0,0,0.9807852804032304],"translation":[0,1.203125,0],"name":"handle","mesh":2},{"rotation":[-0.17364817766693033,0,0,0.984807753012208],"translation":[0,1.25,0],"name":"release lever","mesh":3},{"translation":[0,0.6875,-0.3125],"name":"hose","mesh":4},{"name":"root","children":[0,1,2,3,4]},{"children":[5]}],"bufferViews":[{"buffer":0,"byteOffset":0,"byteLength":1296,"target":34962,"byteStride":12},{"buffer":0,"byteOffset":1296,"byteLength":1296,"target":34962,"byteStride":12},{"buffer":0,"byteOffset":2592,"byteLength":864,"target":34962,"byteStride":8},{"buffer":0,"byteOffset":3456,"byteLength":288,"target":34963},{"buffer":0,"byteOffset":3744,"byteLength":600,"target":34962,"byteStride":12},{"buffer":0,"byteOffset":4344,"byteLength":600,"target":34962,"byteStride":12},{"buffer":0,"byteOffset":4944,"byteLength":400,"target":34962,"byteStride":8},{"buffer":0,"byteOffset":5344,"byteLength":120,"target":34963},{"buffer":0,"byteOffset":5464,"byteLength":240,"target":34962,"byteStride":12},{"buffer":0,"byteOffset":5704,"byteLength":240,"target":34962,"byteStride":12},{"buffer":0,"byteOffset":5944,"byteLength":160,"target":34962,"byteStride":8},{"buffer":0,"byteOffset":6104,"byteLength":60,"target":34963},{"buffer":0,"byteOffset":6164,"byteLength":480,"target":34962,"byteStride":12},{"buffer":0,"byteOffset":6644,"byteLength":480,"target":34962,"byteStride":12},{"buffer":0,"byteOffset":7124,"byteLength":320,"target":34962,"byteStride":8},{"buffer":0,"byteOffset":7444,"byteLength":120,"target":34963},{"buffer":0,"byteOffset":7564,"byteLength":2856,"target":34962,"byteStride":12},{"buffer":0,"byteOffset":10420,"byteLength":2856,"target":34962,"byteStride":12},{"buffer":0,"byteOffset":13276,"byteLength":1904,"target":34962,"byteStride":8},{"buffer":0,"byteOffset":15180,"byteLength":696,"target":34963}],"buffers":[{"byteLength":15876,"uri":"data:application/octet-stream;base64,"}],"accessors":[{"bufferView":0,"componentType":5126,"count":108,"max":[0.22134074568748474,1.203125,0.1875],"min":[-0.22134074568748474,0,-0.1875],"type":"VEC3"},{"bufferView":1,"componentType":5126,"count":108,"max":[0.8611780405044556,1,1],"min":[-0.8611780405044556,-1,-1],"type":"VEC3"},{"bufferView":2,"componentType":5126,"count":108,"max":[0.3125,0.375],"min":[0,0],"type":"VEC2"},{"bufferView":3,"componentType":5123,"count":144,"max":[107],"min":[0],"type":"SCALAR"},{"bufferView":4,"componentType":5126,"count":50,"max":[0.06875000149011612,1.256506323814392,0.06333473324775696],"min":[-0.06875000149011612,1.140625,-0.06333473324775696],"type":"VEC3"},{"bufferView":5,"componentType":5126,"count":50,"max":[1,0.8196668028831482,0.9474103450775146],"min":[-1,-1,-0.9474103450775146],"type":"VEC3"},{"bufferView":6,"componentType":5126,"count":50,"max":[0.21114687621593475,0.328125],"min":[0.171875,0.296875],"type":"VEC2"},{"bufferView":7,"componentType":5123,"count":60,"max":[49],"min":[0],"type":"SCALAR"},{"bufferView":8,"componentType":5126,"count":20,"max":[0.046875,0.015625,0.25],"min":[-0.046875,-0.015625,0],"type":"VEC3"},{"bufferView":9,"componentType":5126,"count":20,"max":[0.9858862161636353,0.9991084933280945,0.6139405965805054],"min":[-0.9858862161636353,-1,0],"type":"VEC3"},{"bufferView":10,"componentType":5126,"count":20,"max":[0.27265626192092896,0.36492395401000977],"min":[0.24921874701976776,0.29218751192092896],"type":"VEC2"},{"bufferView":11,"componentType":5123,"count":30,"max":[19],"min":[0],"type":"SCALAR"},{"bufferView":12,"componentType":5126,"count":40,"max":[0.046875,0.03125,0.203125],"min":[-0.046875,-0.046875,-0.0625],"type":"VEC3"},{"bufferView":13,"componentType":5126,"count":40,"max":[1,1,1],"min":[-1,-1,-1],"type":"VEC3"},{"bufferView":14,"componentType":5126,"count":40,"max":[0.27421873807907104,0.37031251192092896],"min":[0.24687500298023224,0.29218751192092896],"type":"VEC2"},{"bufferView":15,"componentType":5123,"count":60,"max":[39],"min":[0],"type":"SCALAR"},{"bufferView":16,"componentType":5126,"count":238,"max":[0.03048657812178135,0.557712197303772,0.26929864287376404],"min":[-0.03048657812178135,-0.5,-0.0073771243914961815],"type":"VEC3"},{"bufferView":17,"componentType":5126,"count":238,"max":[0.9500845074653625,0.8107089996337891,1],"min":[-0.9500845074653625,-1,-0.8119663596153259],"type":"VEC3"},{"bufferView":18,"componentType":5126,"count":238,"max":[0.2702687382698059,0.36618298292160034],"min":[0.25224485993385315,0.29862862825393677],"type":"VEC2"},{"bufferView":19,"componentType":5123,"count":348,"max":[237],"min":[0],"type":"SCALAR"}],"materials":[{"pbrMetallicRoughness":{"metallicFactor":0,"roughnessFactor":1,"baseColorTexture":{"index":0}},"alphaMode":"MASK","alphaCutoff":0.05,"doubleSided":true}],"textures":[{"sampler":0,"source":0}],"samplers":[{"magFilter":9728,"minFilter":9728,"wrapS":33071,"wrapT":33071}],"images":[{"mimeType":"image/png","uri":"data:image/png;base64,"}],"meshes":[{"primitives":[{"mode":4,"attributes":{"POSITION":0,"NORMAL":1,"TEXCOORD_0":2},"indices":3,"material":0}]},{"primitives":[{"mode":4,"attributes":{"POSITION":4,"NORMAL":5,"TEXCOORD_0":6},"indices":7,"material":0}]},{"primitives":[{"mode":4,"attributes":{"POSITION":8,"NORMAL":9,"TEXCOORD_0":10},"indices":11,"material":0}]},{"primitives":[{"mode":4,"attributes":{"POSITION":12,"NORMAL":13,"TEXCOORD_0":14},"indices":15,"material":0}]},{"primitives":[{"mode":4,"attributes":{"POSITION":16,"NORMAL":17,"TEXCOORD_0":18},"indices":19,"material":0}]}]}